<?xml version="1.0" encoding="utf-8"?>
<svg version="1.1" xmlns="http://www.w3.org/2000/svg" xmlns:xlink="http://www.w3.org/1999/xlink"
	 x="0px" y="0px" viewBox="0 0 176 64" style="enable-background:new 0 0 176 64;" xml:space="preserve">
<g>
	<path fill="#ffffff" d="M90.5,64c-3,0.1-5.9-0.6-8.7-1.8c-2.5-1.2-4.8-2.9-6.6-5.1c-1.8-2.1-3.1-4.5-4-7.1
		c-0.6-1.8-1-3.6-1.3-5.4c-0.8,1.3-1.6,2.6-2.5,4c-1.2,1.8-2.4,3.6-3.8,5.4c-1.3,1.7-2.8,3.4-4.4,4.9c-1.5,1.4-3.1,2.6-4.8,3.6
		c-1.5,0.9-3.2,1.4-5,1.5c-1.3,0-2.5-0.3-3.6-0.8c-1.1-0.5-2.1-1.3-2.8-2.2c-0.7-0.8-1.3-1.8-1.7-2.8c-1.1,1.4-2.3,2.6-3.6,3.8
		c-1.1,1-2.5,1.7-4,2c-0.3,0-0.6,0-0.9,0c-0.8,0-1.5-0.1-2.3-0.3c-0.8-0.2-1.5-0.7-2-1.3c-0.5-0.6-0.9-1.4-1.1-2.2
		c-0.2-0.9-0.3-1.8-0.3-2.7c0-1.7,0.3-3.3,0.7-4.9c0.5-1.8,0.9-3.6,1.4-5.3c0.3-0.8,0.3-1.7,0.2-2.6c-0.1-0.4-0.4-0.6-0.7-0.6
		c-0.1,0-0.2,0-0.2,0c-0.6,0.2-1.1,0.6-1.5,1.1c-0.6,0.7-1.1,1.5-1.5,2.3c-0.4,0.9-0.9,2-1.4,3.1c-0.5,1.2-1,2.4-1.4,3.6
		c-0.5,1.2-0.9,2.4-1.3,3.6s-0.7,2.2-0.9,3.1c-0.2,0.9-0.6,1.7-1.3,2.4c-0.5,0.6-1.2,0.9-2,0.8c-0.2,0-0.5,0-0.7-0.1
		c-0.4,0-0.8-0.2-1.1-0.5c-0.3-0.3-0.6-0.6-0.8-1c-0.2-0.4-0.3-0.8-0.4-1.2c-0.1-0.4-0.1-0.8-0.1-1.2c0-0.4,0-0.8,0.1-1.2
		c-0.9,1.2-1.8,2.3-2.9,3.4c-0.9,1-2,1.6-3.3,1.7c-0.2,0-0.3,0-0.5,0c-1.6,0.1-3.2-0.5-4.4-1.5c-1.3-1.3-2-3-2.1-4.8
		c-0.2-2.5-0.1-5,0.4-7.4c0.5-2.9,1.2-6.1,2-9.5l-1.1-0.1c-0.6,0-1.2-0.1-1.7-0.4C0.2,39.9,0,39.6,0,39.3c0-0.6,0.2-1.1,0.5-1.6
		c0.2-0.5,0.7-0.7,1.2-0.7c0.1,0,0.2,0,0.3,0c0.4,0,0.8,0.1,1.1,0.1s0.8,0,1.1,0C5,34.5,5.8,32,6.7,29.6s1.7-4.7,2.5-6.8
		s1.6-3.8,2.3-5.3c0.5-1.1,1-2.1,1.6-3c0.5-0.6,1.2-1,2-0.9c0.8,0,1.7,0.2,2.5,0.4c0.8,0.2,1.6,0.6,2.3,1.1c0.6,0.4,1.1,0.9,1.3,1.6
		c0.2,0.6,0.1,1.4-0.3,1.9c-0.5,0.7-0.9,1.5-1.3,2.3c-0.6,1.2-1.2,2.6-2,4.3s-1.5,3.6-2.4,5.6c-0.8,2.1-1.7,4.2-2.4,6.4h2.1
		c0.3,0,0.5,0.2,0.6,0.5c0.1,0.4,0.1,0.8,0,1.2c-0.1,0.4-0.3,0.8-0.5,1.2c-0.2,0.4-0.6,0.6-1.1,0.6c-0.4,0-0.8,0.1-1.2,0.1
		s-0.8,0.1-1.3,0.1c-0.7,1.9-1.3,3.8-1.8,5.5s-1,3.5-1.4,5c-0.3,1.3-0.6,2.7-0.8,4c-0.2,0.9-0.1,1.8,0.1,2.7
		c0.1,0.3,0.3,0.5,0.6,0.5c0.1,0,0.1,0,0.2,0c0.2,0,0.4-0.1,0.6-0.2c0.7-0.5,1.4-1.1,1.9-1.8c0.7-0.9,1.5-1.9,2.4-3
		c0.8-1.1,1.6-2.3,2.4-3.6c0.3-1.5,0.7-3.1,1.2-4.7c0.8-3.1,1.7-6.2,2.8-9.5s2.1-6.3,3.1-9.2s2-5.4,2.9-7.5c0.6-1.6,1.4-3.1,2.3-4.6
		c0.5-0.6,1.3-1,2.1-0.9c0.8,0,1.7,0.2,2.5,0.4c0.8,0.3,1.6,0.6,2.3,1.1c0.6,0.4,1.1,0.9,1.3,1.6c0.2,0.6,0.1,1.4-0.3,1.9
		c-0.6,0.9-1.1,1.9-1.6,2.9c-0.8,1.5-1.6,3.4-2.6,5.5s-2,4.5-3.1,7.1s-2,5.1-2.9,7.5c0.5-0.6,1-1.3,1.7-2.1c0.7-0.8,1.5-1.6,2.4-2.3
		c0.9-0.7,1.8-1.3,2.8-1.8c0.7-0.3,1.5-0.5,2.4-0.5c0.2,0,0.5,0,0.7,0c1.4,0.1,2.6,0.9,3.3,2.1c0.8,1.2,0.9,2.9,0.2,5.1
		c-0.3,0.8-0.6,1.8-1,3c-0.4,1.1-0.7,2.1-1,3c-0.7,1.9-1.3,3.7-1.8,5.4c-0.5,1.3-0.7,2.8-0.8,4.2c0,0.2,0.1,0.4,0.1,0.5
		c0.1,0.2,0.3,0.3,0.5,0.3c0.4,0,1.1-0.5,2.1-1.4c1.2-1.1,2.3-2.3,3.3-3.6c0-0.1,0-0.3,0-0.4c0-2.1,0.3-4.2,0.9-6.2
		c0.6-2.1,1.5-4.2,2.7-6.1c1.1-1.8,2.6-3.4,4.3-4.6c1.7-1.2,3.8-1.9,5.9-1.8c0.9,0,1.8,0.2,2.7,0.5c0.9,0.3,1.7,0.8,2.4,1.4
		c0.7,0.7,1.3,1.4,1.8,2.3c0.5,1.1,0.7,2.2,0.7,3.4c0,4.1-2,7.8-5.4,10.1c-1.4,1-3,1.7-4.7,2.1c-1.5,0.4-3,0.6-4.5,0.6
		c-0.1,0.6-0.1,1.2,0.1,1.8c0.2,0.6,0.4,1.2,0.8,1.7c0.4,0.5,0.9,0.9,1.4,1.2c0.6,0.3,1.3,0.5,2,0.5c1.6-0.1,3.1-0.7,4.4-1.7
		c1.8-1.3,3.5-2.9,5-4.6c1.9-2.1,3.5-4.4,5.1-6.8c1.4-2.2,2.7-4.5,3.9-6.8c0.1-2.8,0.4-5.5,1-8.2c0.7-3.5,1.8-6.8,3.2-10.1
		c1.4-3.2,3.1-6.2,5.1-9c1.9-2.7,4.1-5.1,6.7-7.2c2.3-1.9,5-3.4,7.9-4.4C95.8,0.4,98,0,100.2,0c0.8,0,1.6,0,2.4,0.1
		c1.6,0.2,3.1,0.7,4.6,1.4c1.5,0.8,2.9,1.8,4.1,3c1.2,1.2,2.2,2.7,2.9,4.2c0.7,1.6,1.1,3.3,1.1,5.1c0.1,2-0.4,4-1.5,5.7
		c-0.9,1.3-2.2,2.3-3.7,2.9c-1.3,0.5-2.8,0.8-4.2,0.8h-0.2c-1.3,0-2.5-0.2-3.7-0.6c-1.2-0.3-1.8-0.8-1.8-1.4c0-0.7,0.3-1.4,0.8-1.8
		c0.9-1.1,1.6-2.3,2.1-3.6c0.5-1.3,0.8-2.6,0.8-4c0-0.7-0.1-1.4-0.4-2.1c-0.2-0.7-0.6-1.3-1.2-1.7c-0.5-0.5-1.2-0.8-1.9-0.9
		c-0.2,0-0.3,0-0.5,0c-0.7,0-1.4,0.2-2.1,0.5c-2.5,1.4-4.6,3.4-6.1,5.8c-1.9,2.8-3.6,5.8-4.8,8.9c-1.3,3.3-2.4,6.7-3.1,10.3
		c-0.7,3.2-1,6.4-0.9,9.7c0.1,2,0.5,4,1.1,5.9c0.6,1.8,1.5,3.5,2.6,5.1c1.1,1.4,2.6,2.6,4.3,3.3c1.1,0.5,2.4,0.7,3.6,0.7
		c0.8,0,1.5-0.1,2.3-0.2c2.8-0.5,5.5-1.7,7.8-3.4c2.4-1.8,4.7-3.8,6.7-6c0.1-0.3,0.1-0.6,0.2-1c0.5-2.5,1.1-5.1,1.9-7.5
		c0.8-2.5,1.6-4.7,2.4-6.8c0.6-1.6,1.4-3.1,2.3-4.5c0.8-1,2.1-1.5,3.3-1.5c0.9,0,1.9,0.1,2.8,0.4c0.8,0.2,1.6,0.6,2.4,1.1
		c0.6,0.4,1.1,1.1,1.2,1.8c0.2,0.9,0,1.8-0.6,2.5c-0.6,1-1.3,2.4-2.1,4.1c-0.8,1.8-1.7,3.7-2.4,5.8s-1.5,4.2-2.2,6.3
		c-0.6,1.8-1,3.7-1.3,5.6c-0.2,1.5,0,2.4,0.7,2.7c0.1,0,0.2,0.1,0.3,0.1c0.6,0,1.4-0.8,2.3-2.2c1-1.6,1.8-3.3,2.5-5
		c0.9-2,1.8-4.2,2.7-6.3c0.9-2.2,1.8-4.3,2.6-6.4s1.5-3.9,2.1-5.3c0.3-0.9,0.6-1.6,0.8-2.3c0.2-0.5,0.4-0.9,0.6-1.3
		c0.7-1,1.9-1.6,3.1-1.5c0.9,0,1.9,0.1,2.8,0.3c0.9,0.2,1.7,0.5,2.4,0.9c0.6,0.4,1.1,0.9,1.4,1.6c0.2,0.8,0.1,1.7-0.4,2.4
		c-0.6,0.9-1.2,2.2-2,3.8s-1.6,3.4-2.4,5.2s-1.5,3.8-2.1,5.8c-0.6,1.8-1,3.6-1.3,5.5c0,0.3,0,0.7-0.1,1c-0.1,0.5-0.1,1-0.1,1.5
		c0,0.5,0.1,1,0.2,1.4c0.1,0.4,0.4,0.6,0.8,0.7c1-0.2,1.9-0.6,2.6-1.3c1.5-1.3,2.8-2.7,3.9-4.3c1.8-2.4,3.4-5,4.8-7.7
		c0.1-0.1,0.1-0.2,0.2-0.3l0.1-0.2c0.5-2.8,1.2-5.7,2-8.7l-1.4-0.1c-0.8,0-1.5-0.2-2.2-0.5c-0.4-0.2-0.6-0.6-0.6-1
		c0-0.7,0.2-1.4,0.6-2c0.3-0.6,0.9-0.9,1.5-0.9c0.1,0,0.2,0,0.4,0c0.5,0.1,1,0.1,1.4,0.1s0.9,0,1.4,0c0.9-3.2,1.9-6.4,3-9.4
		c1.1-3.1,2.1-5.9,3.1-8.5s2-4.8,2.8-6.6c0.6-1.3,1.3-2.6,2-3.8c0.6-0.8,1.5-1.2,2.5-1.1c1.1,0,2.1,0.2,3.1,0.5c1,0.3,2,0.8,2.8,1.4
		c0.7,0.5,1.3,1.2,1.7,2c0.3,0.8,0.2,1.7-0.4,2.4c-0.6,0.9-1.2,1.9-1.6,2.9c-0.7,1.5-1.5,3.3-2.4,5.4c-0.9,2.1-1.9,4.4-3,7
		c-1,2.5-2.1,5.2-3.1,8h2.6c0.4,0,0.6,0.2,0.7,0.7c0.1,0.5,0.1,1,0,1.4c-0.1,0.5-0.3,1-0.6,1.5c-0.3,0.4-0.8,0.7-1.3,0.8
		c-0.5,0.1-1,0.1-1.5,0.1c-0.5,0-1,0.1-1.6,0.1c-0.9,2.4-1.6,4.7-2.3,6.9s-1.3,4.3-1.7,6.2c-0.4,1.7-0.7,3.4-1,5.1
		c-0.2,1.1-0.2,2.2,0.1,3.3c0.1,0.3,0.4,0.6,0.7,0.6c0.1,0,0.2,0,0.3,0c0.3,0,0.5-0.1,0.7-0.2c0.9-0.6,1.7-1.4,2.4-2.2
		c0.9-1.1,1.9-2.3,3-3.8s2.1-3.1,3.2-4.8s2.1-3.5,3.1-5.1s1.8-3.3,2.6-4.8s1.4-2.9,1.8-4c0.1-0.3,0.4-0.5,0.7-0.5c0.1,0,0.1,0,0.2,0
		c0.3,0,0.7,0.1,1,0.2c0.4,0.1,0.7,0.3,1,0.6c0.3,0.2,0.4,0.5,0.3,0.8c-0.6,1-1.2,2.1-1.7,3.3c-0.8,1.6-1.7,3.5-2.8,5.8
		c-1.1,2.2-2.3,4.6-3.6,7c-1.2,2.3-2.6,4.6-4.1,6.8c-1.2,1.9-2.7,3.6-4.3,5.2c-1.1,1.2-2.6,2-4.2,2.1c-0.2,0-0.4,0-0.6,0
		c-2,0.1-4-0.6-5.5-1.9c-1.6-1.6-2.5-3.8-2.7-6c-0.1-1-0.2-2-0.1-3.1c-0.7,1.2-1.5,2.4-2.3,3.5c-1.3,1.9-2.7,3.6-4.3,5.2
		c-1.1,1.2-2.7,2.1-4.3,2.3c-0.3,0-0.6,0-1,0c-1.8,0.1-3.6-0.6-4.8-2c-1.4-1.7-2.2-3.8-2.1-6c-0.6,1-1.2,2-1.8,2.9
		c-0.7,0.9-1.4,1.7-2.2,2.5c-0.8,0.7-1.6,1.3-2.5,1.8c-0.8,0.4-1.7,0.7-2.6,0.7c-0.8,0-1.6-0.1-2.4-0.3c-0.9-0.3-1.8-0.7-2.5-1.3
		c-0.9-0.8-1.6-1.7-2-2.8c-0.5-1.2-0.8-2.5-0.9-3.8c-1.4,1.4-2.9,2.8-4.5,4c-2.2,1.6-4.5,2.9-7,3.9c-2.6,1-5.4,1.5-8.2,1.6
		C90.8,64,90.6,64,90.5,64z M54.3,40.9C54.3,40.9,54.3,40.9,54.3,40.9c-0.2,0-0.4,0.1-0.6,0.1c-0.6,0.4-1.1,0.8-1.6,1.4
		c-0.7,0.8-1.3,1.7-1.8,2.5c-0.6,1.1-1.2,2.2-1.6,3.3c-0.5,1.2-0.9,2.4-1.1,3.6c0.9-0.1,1.8-0.5,2.6-1c0.9-0.6,1.7-1.3,2.4-2.1
		c0.7-0.8,1.3-1.8,1.8-2.8c0.5-1,0.8-2.1,0.9-3.2c0.1-0.4,0-0.8-0.1-1.2c-0.1-0.2-0.2-0.4-0.4-0.6C54.6,40.9,54.5,40.9,54.3,40.9z"
		/>
</g>
</svg>
